<?xml version="1.0" encoding="UTF-8" standalone="no"?>
<svg width="32" height="32" viewBox="0 0 32 32" fill="none" xmlns="http://www.w3.org/2000/svg">
  <!-- Background Circle with Gradient -->
  <circle cx="16" cy="16" r="15" fill="url(#paint0_linear)"/>
  
  <!-- Water Droplet -->
  <path d="M16 7C16 7 9 14.5 9 20C9 24.418 12.134 28 16 28C19.866 28 23 24.418 23 20C23 14.5 16 7 16 7Z" fill="white" fill-opacity="0.9"/>
  
  <!-- Inner Highlight -->
  <path d="M16 10C16 10 12 15 12 19C12 21.209 13.791 23 16 23C16.5 23 16.5 22 16 22C14.343 22 13 20.657 13 19C13 16 16 12 16 10Z" fill="white"/>
  
  <!-- Gradient Definition -->
  <defs>
    <linearGradient id="paint0_linear" x1="5" y1="5" x2="28" y2="28" gradientUnits="userSpaceOnUse">
      <stop stop-color="#00BFFF"/>
      <stop offset="1" stop-color="#9932CC"/>
    </linearGradient>
  </defs>
</svg>
